<svg id="Capa_1" data-name="Capa 1" xmlns="http://www.w3.org/2000/svg" viewBox="0 0 640 200"><defs><style>.cls-1{fill:#3c3c3b;}</style></defs><title>logo</title><path class="cls-1" d="M376.86,87.72c0-8-2.76-13.91-8.17-18.91-5.22-4.83-13-6.33-22.56-6.33H327.32a.93.93,0,0,0-.93.94v5.94h19.53c7.45,0,13.38.81,17.08,4.34a18.15,18.15,0,0,1,5.91,14c0,5.94-2,10.1-5.91,13.36S353.37,106,345.92,106h-18.6a.93.93,0,0,0-.93.93v6h19.74c1.39,0,2.72,0,4-.14l17.75,24.93a1.83,1.83,0,0,0,1.5.77h7.46l-19.19-26.9a27.8,27.8,0,0,0,11-5.48C374.13,101.58,376.86,95.74,376.86,87.72Z"/><path class="cls-1" d="M69.78,68.55c-5-4.63-12.41-6.07-21.6-6.07h-18a.9.9,0,0,0-.9.9v5.69H48c7.14,0,12.82.78,16.36,4.16A17.39,17.39,0,0,1,70,86.65c0,5.7-1.89,9.68-5.66,12.81s-9.22,4.68-16.36,4.68H30.16a.9.9,0,0,0-.9.89v5.79H48.18q13.78,0,21.6-6.53c5.22-4.35,7.82-10,7.82-17.64A23,23,0,0,0,69.78,68.55Z"/><path class="cls-1" d="M116,63.09a.44.44,0,0,0-.81,0l-3.3,7.37,15.27,34.15H97.75a1.79,1.79,0,0,0-1.63,1l-2.32,5.16h36.14L140.78,135h7.39a.44.44,0,0,0,.4-.63Z"/><path class="cls-1" d="M167,62.48a1.34,1.34,0,0,0-1.33,1.34v2.39L207.88,135H213a.89.89,0,0,0,.9-.89v-3.26L171.68,62.48Z"/><path class="cls-1" d="M238.1,70.16a1.33,1.33,0,0,0,1.74.63,31.67,31.67,0,0,1,3.95-1.44A36.25,36.25,0,0,1,277,76.92a31,31,0,0,1,9,14.15,35.06,35.06,0,0,1-7.48,32.83,30.91,30.91,0,0,1-10.88,7.65l2.42,5a1.33,1.33,0,0,0,1.72.66A37.59,37.59,0,0,0,284,128.59a41.06,41.06,0,0,0,9-39.37,37.77,37.77,0,0,0-11-17,44.87,44.87,0,0,0-40.6-9.2,40.45,40.45,0,0,0-5.63,2.09Z"/><path class="cls-1" d="M461,63.42v3.13l22.81,38.17h5.69a.94.94,0,0,0,.93-.94v-3.59L467.61,62.48h-5.69A.93.93,0,0,0,461,63.42Z"/><path class="cls-1" d="M520.88,72.13v65.44a.93.93,0,0,0,.93.94h6.78V63.06a.59.59,0,0,0-1.09-.3C527.32,63,520.88,72.13,520.88,72.13Z"/><path class="cls-1" d="M416.83,63.41a.46.46,0,0,0-.84,0l-3.45,7.69,15.94,35.65H397.79a1.85,1.85,0,0,0-1.7,1.11l-2.43,5.38H431.4l11.32,25.24h7.71a.46.46,0,0,0,.42-.66Z"/><path class="cls-1" d="M576.67,63.12a.46.46,0,0,0-.84,0l-3.45,7.7,15.94,35.65H557.63a1.87,1.87,0,0,0-1.7,1.1L553.5,113h37.74l11.32,25.24h7.71a.46.46,0,0,0,.42-.66Z"/></svg>